# xmcd CD database file
#
# Track frame offsets:
#	150
#	25674
#	50382
#	66648
#	70507
#	97585
#	114201
#	137042
#	157219
#	185345
#	201054
#	222177
#	245914
#
# Disc length: 3398 seconds
#
# Revision: 0
# Processed by: cddbd v1.5.1PL0 Copyright (c) Steve Scherf et al.
# Submitted via: CDex 1.51
#
DISCID=b50d440d
DTITLE=BOSSANOVA CASSANOVA - √2
DYEAR=2004
DGENRE=JPop
TTITLE0=WANNA SHINE
TTITLE1=口紅
TTITLE2=SHERRY 〜BOSSA NOVA STYLE〜
TTITLE3=INTERLUDE
TTITLE4=SUMMER RADIO SUMMER
TTITLE5=NITE BOSE 〜黒い歯の男〜
TTITLE6=ダンスでゴー4.0
TTITLE7=針のない時計
TTITLE8=あいのうた
TTITLE9=CALLING YOU
TTITLE10=海まで3'10"
TTITLE11=夜桜
TTITLE12=----
EXTD=YEAR: 2004
EXTT0=
EXTT1=
EXTT2=
EXTT3=
EXTT4=
EXTT5=
EXTT6=
EXTT7=
EXTT8=
EXTT9=
EXTT10=
EXTT11=
EXTT12=
PLAYORDER=
